name 900006_16ik_lsw.mot
datacolumns 165
datarows 4
range 1.00000000 1.02500000
cursor 1.0 1.0 0.0
keys m_key
wrap
enforce_loops no
enforce_constraints no
calc_derivatives 0.008333
event_color 1.000000 0.000000 1.000000
endheader

                time	          calcn_r_tx	          calcn_r_ty	          calcn_r_tz	          calcn_r_r1	          calcn_r_r2	          calcn_r_r3	          calcn_l_tx	          calcn_l_ty	          calcn_l_tz	          calcn_l_r1	          calcn_l_r2	          calcn_l_r3	           pelvis_tz	           pelvis_tx	           pelvis_ty	         pelvis_tilt	         pelvis_list	     pelvis_rotation	       hip_flexion_r	     hip_adduction_r	      hip_rotation_r	        knee_angle_r	       ankle_angle_r	    subtalar_angle_r	         mtp_angle_r	       hip_flexion_l	     hip_adduction_l	      hip_rotation_l	        knee_angle_l	       ankle_angle_l	    subtalar_angle_l	         mtp_angle_l	    lumbar_extension	      lumbar_bending	     lumbar_rotation	     ground_force_px	     ground_force_py	     ground_force_pz	     ground_force_vx	     ground_force_vy	     ground_force_vz	     ground_force_px	     ground_force_py	     ground_force_pz	     ground_force_vx	     ground_force_vy	     ground_force_vz	     ground_torque_x	     ground_torque_y	     ground_torque_z	     ground_torque_x	     ground_torque_y	     ground_torque_z	           midhip_px	           midhip_py	           midhip_pz	            hip_r_px	            hip_r_py	            hip_r_pz	            hip_l_px	            hip_l_py	            hip_l_pz	           knee_r_px	           knee_r_py	           knee_r_pz	           knee_l_px	           knee_l_py	           knee_l_pz	          ankle_r_px	          ankle_r_py	          ankle_r_pz	          ankle_l_px	          ankle_l_py	          ankle_l_pz	          midasis_px	          midasis_py	          midasis_pz	           asis_r_px	           asis_r_py	           asis_r_pz	           asis_l_px	           asis_l_py	           asis_l_pz	           psis_r_px	           psis_r_py	           psis_r_pz	           psis_l_px	           psis_l_py	           psis_l_pz	     epicondLat_r_px	     epicondLat_r_py	     epicondLat_r_pz	     epicondLat_l_px	     epicondLat_l_py	     epicondLat_l_pz	     epicondMed_r_px	     epicondMed_r_py	     epicondMed_r_pz	     epicondMed_l_px	     epicondMed_l_py	     epicondMed_l_pz	   malleolusLat_r_px	   malleolusLat_r_py	   malleolusLat_r_pz	   malleolusLat_l_px	   malleolusLat_l_py	   malleolusLat_l_pz	  malleolusMedv_r_px	  malleolusMedv_r_py	  malleolusMedv_r_pz	  malleolusMedv_l_px	  malleolusMedv_l_py	  malleolusMedv_l_pz	     sternalnotch_px	     sternalnotch_py	     sternalnotch_pz	   xyphoidprocess_px	   xyphoidprocess_py	   xyphoidprocess_pz	             neck_px	             neck_py	             neck_pz	            toe_r_px	            toe_r_py	            toe_r_pz	            toe_l_px	            toe_l_py	            toe_l_pz	      thighwand_r_px	      thighwand_r_py	      thighwand_r_pz	      thighwand_l_px	      thighwand_l_py	      thighwand_l_pz	      upperleg1_r_px	      upperleg1_r_py	      upperleg1_r_pz	      upperleg1_l_px	      upperleg1_l_py	      upperleg1_l_pz	      upperleg2_r_px	      upperleg2_r_py	      upperleg2_r_pz	      upperleg2_l_px	      upperleg2_l_py	      upperleg2_l_pz	      shankwand_r_px	      shankwand_r_py	      shankwand_r_pz	      shankwand_l_px	      shankwand_l_py	      shankwand_l_pz	      lowerleg1_r_px	      lowerleg1_r_py	      lowerleg1_r_pz	      lowerleg1_l_px	      lowerleg1_l_py	      lowerleg1_l_pz	    subclavicle_r_px	    subclavicle_r_py	    subclavicle_r_pz	    subclavicle_l_px	    subclavicle_l_py	    subclavicle_l_pz	
          1.00000000	          1.94141977	          0.03734384	         -0.20813239	          3.12263323	          2.04921564	         -2.39224595	          1.93879580	          0.09778729	         -0.32365298	         -0.97292511	          3.78109406	        -17.88454490	         -0.25435200	          2.10102085	          0.83763644	          2.44905986	          2.13097851	          2.65630569	         -0.93411588	          2.00217891	          0.42532570	        -10.93375182	          7.23157220	          0.00000000	          0.00000000	         15.83427893	          2.27792295	         -3.39690854	        -43.49829060	          7.34349577	          0.00000000	          0.00000000	         -5.23464898	         -1.08038823	         -0.96649948	          2.06232739	          0.00000000	         -0.22438612	        -13.84780455	        400.08460889	         -9.18733819	          1.64954175	          0.00000000	         -0.27435770	          0.00000000	          0.00000000	          0.00000000	          0.00000000	          0.62225781	          0.00000000	          0.00000000	          0.00000000	          0.00000000	          2.06835562	          0.77583483	         -0.25812169	          2.06335618	          0.77001106	         -0.20120929	          2.07335519	          0.78165861	         -0.31503380	          2.00423732	          0.42947894	         -0.19805563	          2.12719878	          0.43657877	         -0.33696941	          1.98963443	          0.06550773	         -0.21547026	          1.99498038	          0.11176695	         -0.31585357	          2.10374979	          0.84748734	         -0.24831200	          2.10944837	          0.84222393	         -0.13735214	          2.09805108	          0.85275071	         -0.35927149	          1.92947831	          0.87595404	         -0.20769285	          1.92528920	          0.87513013	         -0.26313700	          2.04973757	          0.41764808	         -0.13893769	          2.13617365	          0.42933112	         -0.39479164	          2.01182456	          0.42818543	         -0.25618986	          2.15889000	          0.42982794	         -0.27344856	          1.99099161	          0.06316225	         -0.17806830	          1.97974545	          0.11641119	         -0.34869714	          1.98454358	          0.06324782	         -0.24865035	          2.00068601	          0.11255898	         -0.28278909	          2.09290944	          1.20001487	         -0.25386075	          2.09975003	          1.09821146	         -0.25944839	          1.98657057	          1.27165848	         -0.24245221	          2.07306794	          0.04643157	         -0.21656927	          2.06774999	          0.06657745	         -0.34032896	          2.16920326	          0.55462027	         -0.17536094	          2.20785045	          0.60647301	         -0.40722612	          2.12099702	          0.59404551	         -0.13386490	          2.17938434	          0.64157184	         -0.33911885	          2.10319431	          0.53697742	         -0.13912714	          2.18841020	          0.58365820	         -0.33295256	          2.12598522	          0.17067623	         -0.20664046	          1.99895518	          0.21709479	         -0.44025350	          2.04659455	          0.16240183	         -0.20907835	          2.01619118	          0.20413395	         -0.36414834	          2.09774341	          1.19866994	         -0.19732090	          2.09396649	          1.20164635	         -0.30443837	
          1.00833333	          1.94154663	          0.03712371	         -0.20889428	          3.08477886	          1.71427250	         -2.19326674	          1.96090236	          0.09081564	         -0.32591345	         -0.85596832	          3.56909943	        -15.37178077	         -0.25410143	          2.10688582	          0.83720648	          2.37840716	          2.25021165	          2.47176757	         -1.34791280	          1.91001433	          0.39144208	        -10.88081083	          7.86629877	          0.00000000	          0.00000000	         16.34757435	          2.33048962	         -3.44896177	        -41.65954954	          7.59216718	          0.00000000	          0.00000000	         -5.36511943	         -1.38114830	         -0.68381130	          2.06583203	          0.00000000	         -0.22473248	        -13.41771054	        402.82972046	         -9.01347400	          1.65055005	          0.00000000	         -0.27448853	         -0.00000000	          0.00000000	          0.00000000	          0.00000000	          0.66170504	          0.00000000	          0.00000000	          0.00000000	          0.00000000	          2.07420461	          0.77551356	         -0.25819153	          2.06902629	          0.76960069	         -0.20130442	          2.07938286	          0.78142628	         -0.31507820	          2.00687250	          0.42995041	         -0.19833775	          2.13556198	          0.43680314	         -0.33659522	          1.98971318	          0.06559599	         -0.21551108	          2.01642392	          0.10656562	         -0.31751786	          2.10966540	          0.84714075	         -0.24817868	          2.11504549	          0.84168344	         -0.13714248	          2.10428529	          0.85259807	         -0.35921460	          1.93521024	          0.87577509	         -0.20830351	          1.93136361	          0.87502589	         -0.26371097	          2.05236752	          0.41739527	         -0.13910824	          2.14518766	          0.42984742	         -0.39452346	          2.01504105	          0.42832437	         -0.25667717	          2.16641615	          0.43022372	         -0.27309116	          1.99103846	          0.06325793	         -0.17810757	          2.00088568	          0.11085509	         -0.35026669	          1.98472781	          0.06325824	         -0.24870455	          2.02218789	          0.10723792	         -0.28445968	          2.09917520	          1.19968322	         -0.25440254	          2.10573847	          1.09784796	         -0.25975602	          1.99319842	          1.27153208	         -0.24293334	          2.07316531	          0.04656090	         -0.21662597	          2.09088862	          0.06478815	         -0.34285057	          2.17336360	          0.55361343	         -0.17507687	          2.21502685	          0.60725936	         -0.40658559	          2.12522798	          0.59345360	         -0.13405203	          2.18586141	          0.64209596	         -0.33856962	          2.10676868	          0.53635703	         -0.13929232	          2.19524146	          0.58429719	         -0.33236651	          2.12702390	          0.16960005	         -0.20668244	          2.01573210	          0.21284381	         -0.44110847	          2.04760578	          0.16194731	         -0.20922348	          2.03381055	          0.20003695	         -0.36504789	          2.10407764	          1.19845962	         -0.19783669	          2.10017226	          1.20119203	         -0.30501403	
          1.01666667	          1.94159485	          0.03696003	         -0.21002278	          3.02446784	          1.16413928	         -1.99927495	          1.98322191	          0.08436266	         -0.32794520	         -0.79533596	          3.24106297	        -13.18524622	         -0.25384196	          2.11290999	          0.83668730	          2.29621752	          2.34132992	          2.11226302	         -1.71200591	          1.82162763	          0.32046784	        -10.90066283	          8.53114070	          0.00000000	          0.00000000	         16.79349813	          2.40816326	         -3.49107565	        -39.70117465	          7.47470817	          0.00000000	          0.00000000	         -5.49714789	         -1.59827459	         -0.40507733	          2.06926417	          0.00000000	         -0.22505734	        -13.04362238	        405.87755158	         -8.79692556	          1.65162793	          0.00000000	         -0.27463678	          0.00000000	         -0.00000000	          0.00000000	          0.00000000	          0.70095516	          0.00000000	          0.00000000	          0.00000000	          0.00000000	          2.08008242	          0.77512499	         -0.25825414	          2.07470638	          0.76912897	         -0.20139412	          2.08545821	          0.78112069	         -0.31511363	          2.00984015	          0.43022922	         -0.19863108	          2.14373156	          0.43678653	         -0.33621790	          1.98983836	          0.06569814	         -0.21554297	          2.03817359	          0.10164942	         -0.31924122	          2.11558815	          0.84672741	         -0.24803576	          2.12061159	          0.84109421	         -0.13693685	          2.11056479	          0.85236062	         -0.35913449	          1.94095943	          0.87551663	         -0.20894132	          1.93731707	          0.87486597	         -0.26428709	          2.05506324	          0.41711778	         -0.13928961	          2.15384711	          0.43022057	         -0.39423334	          2.01858653	          0.42820575	         -0.25700658	          2.17376082	          0.43034201	         -0.27282757	          1.99111221	          0.06337317	         -0.17813695	          2.02230341	          0.10556615	         -0.35187628	          1.98494492	          0.06317732	         -0.24873562	          2.04396025	          0.10217355	         -0.28617007	          2.10546949	          1.19923414	         -0.25495207	          2.11176168	          1.09737266	         -0.26014925	          1.99976636	          1.27132838	         -0.24348246	          2.07330929	          0.04672249	         -0.21669613	          2.11410811	          0.06318608	         -0.34534405	          2.17752802	          0.55258755	         -0.17473078	          2.22197270	          0.60780677	         -0.40594350	          2.12944237	          0.59284988	         -0.13421879	          2.19213472	          0.64233502	         -0.33806770	          2.11044876	          0.53576321	         -0.13939301	          2.20186822	          0.58468253	         -0.33184311	          2.12811063	          0.16848425	         -0.20666047	          2.03250441	          0.20868585	         -0.44192323	          2.04849953	          0.16144209	         -0.20937628	          2.05147045	          0.19608338	         -0.36589271	          2.11040987	          1.19808715	         -0.19838165	          2.10643383	          1.20066037	         -0.30557265	
          1.02500000	          1.94167065	          0.03726412	         -0.21009891	          3.02154450	          1.06639428	         -2.26863979	          2.00593163	          0.07815666	         -0.32980871	         -0.67573483	          3.34165672	        -10.97968685	         -0.25353939	          2.11913477	          0.83619086	          2.19969476	          2.40824807	          2.08128781	         -2.08475979	          1.78189027	          0.29966775	        -10.92790930	          8.76088413	          0.00000000	          0.00000000	         17.19680743	          2.36346336	         -3.57508404	        -37.59341167	          7.26539633	          0.00000000	          0.00000000	         -5.54651222	         -1.64187808	         -0.30706438	          2.07264772	          0.00000000	         -0.22535211	        -12.67492934	        408.87026863	         -8.57734737	          1.65273523	          0.00000000	         -0.27480722	         -0.00000000	          0.00000000	          0.00000000	          0.00000000	          0.74095957	          0.00000000	          0.00000000	          0.00000000	          0.00000000	          2.08598862	          0.77469003	         -0.25832021	          2.08040283	          0.76861877	         -0.20148837	          2.09157402	          0.78076081	         -0.31515150	          2.01304741	          0.43035669	         -0.19889707	          2.15163814	          0.43661225	         -0.33584080	          1.98999993	          0.06581640	         -0.21557330	          2.06016261	          0.09709569	         -0.32101331	          2.12151434	          0.84626402	         -0.24789774	          2.12615327	          0.84047751	         -0.13676222	          2.11687555	          0.85205055	         -0.35903320	          1.94672615	          0.87518625	         -0.20960146	          1.94316310	          0.87463470	         -0.26486383	          2.05781967	          0.41681515	         -0.13945899	          2.16214315	          0.43044814	         -0.39392799	          2.02235666	          0.42798753	         -0.25730946	          2.18087190	          0.43014126	         -0.27282128	          1.99120294	          0.06350740	         -0.17816406	          2.04394429	          0.10061489	         -0.35352122	          1.98518328	          0.06303388	         -0.24875346	          2.06596572	          0.09745172	         -0.28791966	          2.11179461	          1.19868670	         -0.25550540	          2.11783553	          1.09680506	         -0.26061883	          2.00628068	          1.27104389	         -0.24407740	          2.07349331	          0.04689426	         -0.21677583	          2.13736923	          0.06178328	         -0.34776818	          2.18167299	          0.55153317	         -0.17432008	          2.22869358	          0.60811147	         -0.40530792	          2.13362421	          0.59219765	         -0.13429159	          2.19821816	          0.64230978	         -0.33759597	          2.11420358	          0.53517305	         -0.13942511	          2.20828879	          0.58480279	         -0.33141398	          2.12923844	          0.16734525	         -0.20657195	          2.04927592	          0.20466953	         -0.44270570	          2.04927838	          0.16090966	         -0.20952829	          2.06915785	          0.19229834	         -0.36672152	          2.11674228	          1.19757556	         -0.19896190	          2.11275356	          1.20006755	         -0.30610030	
